# xmcd
#
# Track frame offsets:
#  150
#  12190
#  25062
#  38325
#  47827
#  59630
#  71490
#  80780
#  92570
#  104665
#  115690
#  127892
#
# Disc length: 1908 seconds
#
# Revision: 0
# Processed by: cddbd v1.4PL0 Copyright (c) Steve Scherf et al.
# Submitted via: AltoMP3_Maker 3.0
#
DISCID=9607720c
DTITLE=Bruce and Bobette Punches - The Circuit Riders
DYEAR=1900
DGENRE=
TTITLE0=Walls Of Jericho
TTITLE1=One By One
TTITLE2=Palm Of God's Hand
TTITLE3=Going Up
TTITLE4=Circuit Rider
TTITLE5=Walking My Lord Up Calvary's Hill
TTITLE6=Working On A Road
TTITLE7=Holy City
TTITLE8=These Are They
TTITLE9=I'm Going Up On The Mountain
TTITLE10=Jesus Is Coming Soon
TTITLE11=The Land Of Beulah
EXTD=
EXTT0=
EXTT1=
EXTT2=
EXTT3=
EXTT4=
EXTT5=
EXTT6=
EXTT7=
EXTT8=
EXTT9=
EXTT10=
EXTT11=
PLAYORDER=
